<svg viewBox="0 -10 107 81.4"><title>lotus</title><path d="M53.5 68c-0.4 0-0.7-0.1-1-0.4 -0.2-0.2-4.1-3.8-8.1-9.7 -3.7-5.5-8.1-14.1-8.1-23.7 0-9.6 4.4-18.2 8.1-23.7 4-5.9 7.9-9.6 8.1-9.7 0.5-0.5 1.4-0.5 1.9 0 0.2 0.2 4.1 3.8 8.1 9.7 3.7 5.5 8.1 14.1 8.1 23.7 0 9.6-4.4 18.2-8.1 23.7 -4 5.9-7.9 9.6-8.1 9.7C54.2 67.9 53.9 68 53.5 68z"/><path d="M53.5 68c-0.6 0-1.2-0.4-1.4-1 -0.1-0.2-1.7-5.3-2.3-12.4C49.4 48 49.8 38.3 54.5 30c4.7-8.4 12.8-13.6 18.7-16.6 6.4-3.2 11.6-4.4 11.8-4.5 0.7-0.2 1.4 0.2 1.7 0.9 0.1 0.2 1.7 5.3 2.3 12.4 0.5 6.6 0.1 16.2-4.6 24.6 -4.7 8.3-12.8 13.6-18.7 16.6 -6.4 3.2-11.6 4.4-11.8 4.5C53.7 68 53.6 68 53.5 68z"/><path d="M67.4 69.9c-8 0-14.1-1.8-14.3-1.8 -0.7-0.2-1.1-0.9-1-1.6 0-0.2 1.1-5.1 3.9-11.2 2.6-5.6 7.3-13.3 15-17.9 5.5-3.3 12.3-5 20.2-5 8 0 14.1 1.8 14.3 1.8 0.7 0.2 1.1 0.9 1 1.6 0 0.2-1.1 5.1-3.9 11.2 -2.6 5.6-7.3 13.3-15 17.9C82.1 68.2 75.3 69.9 67.4 69.9z"/><path d="M53.5 68c-0.1 0-0.2 0-0.3 0 -0.2 0-5.4-1.3-11.8-4.5 -5.9-3-14-8.3-18.7-16.6 -4.7-8.3-5.1-18-4.6-24.6 0.5-7.1 2.2-12.2 2.3-12.4 0.2-0.7 1-1.1 1.7-0.9 0.2 0 5.4 1.3 11.8 4.5 5.9 3 14 8.3 18.7 16.6 4.7 8.3 5.1 18 4.6 24.6C56.6 61.7 55 66.8 54.9 67 54.7 67.6 54.1 68 53.5 68z"/><path d="M39.6 69.9L39.6 69.9c-7.9 0-14.7-1.7-20.2-5C11.7 60.2 7 52.5 4.4 46.9 1.6 40.9 0.6 36 0.5 35.7c-0.2-0.7 0.3-1.4 1-1.6 0.3-0.1 6.4-1.8 14.3-1.8 7.9 0 14.7 1.7 20.2 5 7.7 4.6 12.4 12.3 15 17.9 2.8 6.1 3.8 10.9 3.9 11.2 0.2 0.7-0.3 1.4-1 1.6C53.6 68.1 47.5 69.9 39.6 69.9z"/></svg>