<svg id="item4" width="120.5" height="55.4" viewBox="0 0 120.5 55.4" style="opacity: 1;"><g fill="none" stroke="#231F20" stroke-miterlimit="10"><path d="M39.1 12.7s3.9 18.6 4.5 20.8c.7 2.1.9 4.4-2.3 6.1-3.2 1.7-15.8 2-21.3 3.9S9.8 49.5 9.8 51s1.7 2.8 3.2 1.6c5.5-4.1 13.3-5.6 19.7-5.5 4.9.1 4.8 2.7 2.1 2.9-2.7.3-5.6 2-5.3 2.9s.1 2.4 5.6 1.5c5.5-.9 15.4-.5 18.6-3.5 3.2-2.9 4.4-9.8 2.9-14.4C55.2 32 52.5 0 52.5 0M56.6 45.8h3.7M.2 55s3.1-1.6 9.6-3.4" style="stroke-dasharray: 194, 196; stroke-dashoffset: 0;"></path></g><g fill="none" stroke="#231F20" stroke-miterlimit="10"><path d="M81.4 12.7s-3.9 18.6-4.5 20.8c-.7 2.1-.9 4.4 2.3 6.1 3.2 1.7 15.8 2 21.3 3.9s10.2 6 10.2 7.5-1.7 2.8-3.2 1.6c-5.5-4.1-13.3-5.6-19.7-5.5-4.9.1-4.8 2.7-2.1 2.9 2.7.3 5.6 2 5.3 2.9s-.1 2.4-5.6 1.5c-5.5-.9-15.4-.5-18.6-3.5-3.2-2.9-4.4-9.8-2.9-14.4 1.4-4.5 4-36.5 4-36.5M63.9 45.8h-3.7M120.2 55s-3.1-1.6-9.6-3.4" style="stroke-dasharray: 194, 196; stroke-dashoffset: 0;"></path></g></svg>