<svg aria-hidden="true" version="1.1" xmlns="http://www.w3.org/2000/svg" xmlns:xlink="http://www.w3.org/1999/xlink">
<defs>
<symbol id="lotus" viewBox="0 -10 107 81.4">
<path d="M53.5,68c-0.4,0-0.7-0.1-1-0.4c-0.2-0.2-4.1-3.8-8.1-9.7c-3.7-5.5-8.1-14.1-8.1-23.7c0-9.6,4.4-18.2,8.1-23.7c4-5.9,7.9-9.6,8.1-9.7c0.5-0.5,1.4-0.5,1.9,0c0.2,0.2,4.1,3.8,8.1,9.7c3.7,5.5,8.1,14.1,8.1,23.7c0,9.6-4.4,18.2-8.1,23.7c-4,5.9-7.9,9.6-8.1,9.7C54.2,67.9,53.9,68,53.5,68z">
</path><path d="M53.5,68c-0.6,0-1.2-0.4-1.4-1c-0.1-0.2-1.7-5.3-2.3-12.4C49.4,48,49.8,38.3,54.5,30c4.7-8.4,12.8-13.6,18.7-16.6c6.4-3.2,11.6-4.4,11.8-4.5c0.7-0.2,1.4,0.2,1.7,0.9c0.1,0.2,1.7,5.3,2.3,12.4c0.5,6.6,0.1,16.2-4.6,24.6c-4.7,8.3-12.8,13.6-18.7,16.6c-6.4,3.2-11.6,4.4-11.8,4.5C53.7,68,53.6,68,53.5,68z"></path><path d="M67.4,69.9c-8,0-14.1-1.8-14.3-1.8c-0.7-0.2-1.1-0.9-1-1.6c0-0.2,1.1-5.1,3.9-11.2c2.6-5.6,7.3-13.3,15-17.9c5.5-3.3,12.3-5,20.2-5c8,0,14.1,1.8,14.3,1.8c0.7,0.2,1.1,0.9,1,1.6c0,0.2-1.1,5.1-3.9,11.2c-2.6,5.6-7.3,13.3-15,17.9C82.1,68.2,75.3,69.9,67.4,69.9z"></path><path d="M53.5,68c-0.1,0-0.2,0-0.3,0c-0.2,0-5.4-1.3-11.8-4.5c-5.9-3-14-8.3-18.7-16.6c-4.7-8.3-5.1-18-4.6-24.6c0.5-7.1,2.2-12.2,2.3-12.4c0.2-0.7,1-1.1,1.7-0.9c0.2,0,5.4,1.3,11.8,4.5c5.9,3,14,8.3,18.7,16.6c4.7,8.3,5.1,18,4.6,24.6C56.6,61.7,55,66.8,54.9,67C54.7,67.6,54.1,68,53.5,68z"></path><path d="M39.6,69.9L39.6,69.9c-7.9,0-14.7-1.7-20.2-5C11.7,60.2,7,52.5,4.4,46.9C1.6,40.9,0.6,36,0.5,35.7c-0.2-0.7,0.3-1.4,1-1.6c0.3-0.1,6.4-1.8,14.3-1.8c7.9,0,14.7,1.7,20.2,5c7.7,4.6,12.4,12.3,15,17.9c2.8,6.1,3.8,10.9,3.9,11.2c0.2,0.7-0.3,1.4-1,1.6C53.6,68.1,47.5,69.9,39.6,69.9z"></path>
</symbol>
</defs>
</svg>
